PathFileType	4	(X/Y/Z)	C:/Users/opensim2020/Desktop/walking_exp_matlab/subject01_walking11_straight_01.trc																																																																																																																																		
DataRate	CameraRate	NumFrames	NumMarkers	Units	OrigDataRate	OrigDataStartFrame	OrigNumFrames																																																																																																																														
100	100	4	44	mm	100	910	374																																																																																																																														
Frame#	Time	LFHD			RFHD			LBHD			RBHD			C7			T10			CLAV			STRN			RBAK			LSHO			LUPA			LELB			LFRM			LWRA			LWRB			LFIN			RSHO			RUPA			RELB			RFRM			RWRA			RWRB			RFIN			LASI			RASI			LPSI			RPSI			LTHI			LKNE			LTIB			LANK			LHEE			LTOE			RTHI			RKNE			RTIB			RANK			RHEE			RTOE			*39			*40			*41			*42			*43		
		X1	Y1	Z1	X2	Y2	Z2	X3	Y3	Z3	X4	Y4	Z4	X5	Y5	Z5	X6	Y6	Z6	X7	Y7	Z7	X8	Y8	Z8	X9	Y9	Z9	X10	Y10	Z10	X11	Y11	Z11	X12	Y12	Z12	X13	Y13	Z13	X14	Y14	Z14	X15	Y15	Z15	X16	Y16	Z16	X17	Y17	Z17	X18	Y18	Z18	X19	Y19	Z19	X20	Y20	Z20	X21	Y21	Z21	X22	Y22	Z22	X23	Y23	Z23	X24	Y24	Z24	X25	Y25	Z25	X26	Y26	Z26	X27	Y27	Z27	X28	Y28	Z28	X29	Y29	Z29	X30	Y30	Z30	X31	Y31	Z31	X32	Y32	Z32	X33	Y33	Z33	X34	Y34	Z34	X35	Y35	Z35	X36	Y36	Z36	X37	Y37	Z37	X38	Y38	Z38	X39	Y39	Z39	X40	Y40	Z40	X41	Y41	Z41	X42	Y42	Z42	X43	Y43	Z43	X44	Y44	Z44
																																																																																																																																					
1	0	-1246.36792	1663.54272	1415.82361	-1220.89905	1674.84412	1527.13354	-1348.13025	1594.53015	1437.33569	-1324.30042	1604.84436	1555.67004	-1348.06287	1423.27588	1452.89917	-1402.90649	1135.802	1437.18091	-1210.77686	1347.82507	1473.23804	-1180.44336	1187.88306	1468.85535	-1429.51733	1235.19958	1509.96631	-1240.19299	1388.48804	1306.88684	-1271.48499	1209.44421	1210.36267	-1302.41492	1063.34802	1203.021	-1278.33008	952.78162	1176.03381	-1224.78699	824.72644	1196.79761	-1273.85059	830.50592	1163.5907	-1236.63232	754.4353	1157.13989	-1297.7561	1374.74146	1611.41418	-1365.85779	1174.09741	1701.67603	-1356.63904	1048.23535	1706.07605	-1313.01721	936.42603	1739.81958	-1210.47314	839.14795	1735.38501	-1259.75476	829.17847	1765.1449	-1206.61084	761.32483	1769.80249	-1224.1626	923.66736	1354.17896	-1267.30725	911.3847	1567.44263	-1414.8623	944.42865	1365.53125	-1445.07581	943.53632	1507.52185	-1187.73877	604.28717	1283.81604	-1166.64038	474.78802	1308.11389	-1157.16638	289.37784	1301.34607	-1104.85803	75.7083	1359.43884	-1137.36633	34.83628	1415.15723	-956.01147	84.46859	1356.15857	-1364.92261	584.80023	1600.16064	-1363.80139	426.52551	1575.95935	-1448.71265	270.81421	1561.03748	-1496.82019	73.02602	1496.23401	-1529.36914	37.0065	1434.06226	-1370.40649	27.4649	1547.90686	-1242.55005	1704.37085	1506.3988	1973.11084	1023.52289	-3101.896	2012.52075	1022.05902	-3140.65161	NaN	NaN	NaN	NaN	NaN	NaN
2	0.01	-1240.68774	1662.89355	1415.47363	-1215.20923	1674.27905	1526.6449	-1342.68762	1593.974	1437.12024	-1318.5199	1604.26184	1555.42688	-1342.51685	1422.60327	1453.05225	-1397.31677	1135.08264	1437.72864	-1205.09644	1347.24268	1472.83948	-1174.79041	1187.2511	1468.64221	-1423.69543	1234.47705	1510.54761	-1235.17395	1387.71802	1306.67322	-1266.82288	1208.54431	1210.46326	-1297.99719	1062.55713	1203.52856	-1274.46228	951.91522	1176.34375	-1221.42407	823.66675	1196.81714	-1270.72375	829.81476	1163.83691	-1233.74792	753.33252	1157.31921	-1291.57263	1374.07166	1611.43237	-1359.22974	1173.40405	1701.86523	-1349.40027	1047.63757	1706.17957	-1305.27893	935.94391	1740.15381	-1202.45911	838.95959	1735.40552	-1251.57214	828.76648	1765.2981	-1198.44714	761.30902	1769.99829	-1218.65735	922.78943	1354.71399	-1261.30408	910.88275	1568.19458	-1409.4021	943.60577	1366.297	-1439.46619	943.1001	1508.36987	-1182.19482	603.53778	1284.68066	-1161.32373	474.2955	1308.74084	-1150.38916	289.06375	1301.33215	-1095.51831	75.72759	1359.16614	-1127.36853	34.10598	1414.79688	-946.64899	85.71199	1355.86853	-1361.10437	584.8819	1601.06213	-1361.06055	426.11725	1576.79797	-1447.10254	271.07571	1561.4585	-1494.65442	73.71634	1498.24133	-1529.54858	37.93641	1434.67139	-1370.45923	27.5264	1548.12183	-1236.90698	1703.74524	1505.95569	1973.08777	1023.96484	-3101.96582	2012.51086	1022.078	-3140.80176	NaN	NaN	NaN	NaN	NaN	NaN
3	0.02	-1235.15674	1662.31934	1414.9751	-1209.49792	1673.71045	1526.15222	-1337.10254	1593.35852	1436.8092	-1312.74524	1603.70459	1555.0769	-1337.06775	1422.13953	1453.13806	-1391.58887	1134.3429	1438.13489	-1199.34399	1346.58972	1472.4281	-1169.07312	1186.65369	1468.29688	-1417.82922	1233.80042	1510.91541	-1230.14368	1386.87793	1306.31763	-1262.06433	1207.62317	1210.44995	-1293.57751	1061.65369	1203.72632	-1270.38171	950.9978	1176.64282	-1217.87427	822.52692	1196.87366	-1267.10657	828.73566	1163.99829	-1230.63049	752.25909	1157.45691	-1285.42761	1373.56091	1611.3125	-1352.57251	1172.67786	1701.93738	-1342.42102	1047.07593	1706.75281	-1297.7019	935.49152	1740.33887	-1194.55823	838.83514	1735.24438	-1243.62695	828.56146	1765.31714	-1189.93274	760.94385	1769.64465	-1212.94238	921.99274	1355.17163	-1257.19666	910.34625	1568.30066	-1403.75342	942.73163	1366.89612	-1433.49731	942.50836	1509.02344	-1176.2738	602.90869	1285.49634	-1155.53687	473.9093	1309.36829	-1143.79431	288.67215	1301.38611	-1087.64954	75.63427	1358.70728	-1119.06897	33.71363	1414.40137	-938.61957	86.16097	1355.49231	-1356.83875	584.58875	1601.46045	-1358.31543	426.12	1577.1709	-1445.39453	271.52585	1561.95544	-1494.62146	74.54372	1498.72424	-1529.6123	39.26642	1435.26477	-1370.37012	27.32421	1548.22144	-1231.1958	1703.21594	1505.49744	1973.11218	1023.64349	-3101.90186	2012.62061	1022.12939	-3140.72559	NaN	NaN	NaN	NaN	NaN	NaN
4	0.03	-1229.57764	1661.69495	1414.36487	-1203.75952	1673.13464	1525.48767	-1331.55664	1592.76892	1436.37988	-1306.94238	1603.13391	1554.58325	-1331.40442	1421.43835	1452.98657	-1385.81885	1133.552	1438.45813	-1193.60107	1346.02722	1471.92151	-1163.31506	1186.04236	1467.85461	-1411.86963	1233.05383	1511.19482	-1225.04492	1386.13916	1305.81616	-1257.19519	1206.74817	1210.36902	-1288.3092	1060.92542	1204.24597	-1266.2157	950.11682	1176.8551	-1214.02625	821.45618	1196.9353	-1263.44214	827.90173	1164.20251	-1227.20557	751.13336	1157.5542	-1279.33472	1373.11487	1611.16736	-1345.90552	1172.02295	1701.8927	-1335.26135	1046.37317	1706.78308	-1290.15295	934.97321	1740.35303	-1186.75745	838.62195	1734.94641	-1235.65881	828.22931	1765.21277	-1181.80493	760.79602	1769.43298	-1207.25	921.21741	1355.47473	-1251.10059	909.79846	1568.68323	-1397.99866	941.94458	1367.40625	-1427.50647	941.91211	1509.61438	-1169.99719	602.52563	1286.48059	-1149.43481	473.68625	1309.8634	-1137.3938	288.27023	1301.33948	-1080.58325	75.02885	1358.54761	-1111.93921	32.85974	1414.29138	-931.77802	85.72151	1355.06763	-1352.37903	584.37231	1601.92017	-1355.25842	425.82974	1577.77405	-1443.58215	271.85229	1562.32166	-1496.47803	75.35987	1497.54419	-1529.4375	40.15054	1435.97717	-1370.42554	27.3713	1548.20557	-1225.48828	1702.62573	1504.84949	1973.05151	1023.40771	-3101.93066	2012.48376	1022.03217	-3140.7251	NaN	NaN	NaN	NaN	NaN	NaN
